<mxfile host="Electron" agent="Mozilla/5.0 (Windows NT 10.0; Win64; x64) AppleWebKit/537.36 (KHTML, like Gecko) draw.io/27.0.9 Chrome/134.0.6998.205 Electron/35.4.0 Safari/537.36" version="27.0.9">
  <diagram name="Página-1" id="XS7V-VLY6jyNY1K_E82_">
    <mxGraphModel dx="2350" dy="1388" grid="1" gridSize="10" guides="1" tooltips="1" connect="1" arrows="1" fold="1" page="1" pageScale="1" pageWidth="827" pageHeight="1169" math="0" shadow="0">
      <root>
        <mxCell id="0" />
        <mxCell id="1" parent="0" />
        <mxCell id="QoR13ae_kRnfU3jxiXyF-1" value="Item" style="rounded=0;whiteSpace=wrap;html=1;" parent="1" vertex="1">
          <mxGeometry x="915" y="130" width="120" height="60" as="geometry" />
        </mxCell>
        <mxCell id="ka-YYYt9VudWHHIUjrFj-49" value="" style="edgeStyle=orthogonalEdgeStyle;rounded=0;orthogonalLoop=1;jettySize=auto;html=1;endArrow=none;startFill=0;" edge="1" parent="1" source="QoR13ae_kRnfU3jxiXyF-3" target="ka-YYYt9VudWHHIUjrFj-48">
          <mxGeometry relative="1" as="geometry" />
        </mxCell>
        <mxCell id="QoR13ae_kRnfU3jxiXyF-3" value="Fornecedor" style="rounded=0;whiteSpace=wrap;html=1;" parent="1" vertex="1">
          <mxGeometry x="390" y="1290" width="120" height="60" as="geometry" />
        </mxCell>
        <mxCell id="QoR13ae_kRnfU3jxiXyF-4" value="Ata de Registro de Preços" style="rounded=0;whiteSpace=wrap;html=1;" parent="1" vertex="1">
          <mxGeometry x="1180" y="715" width="120" height="60" as="geometry" />
        </mxCell>
        <mxCell id="QoR13ae_kRnfU3jxiXyF-5" value="Usuário Solicitante" style="rounded=0;whiteSpace=wrap;html=1;" parent="1" vertex="1">
          <mxGeometry x="130" y="120" width="120" height="60" as="geometry" />
        </mxCell>
        <mxCell id="ka-YYYt9VudWHHIUjrFj-42" value="" style="edgeStyle=orthogonalEdgeStyle;rounded=0;orthogonalLoop=1;jettySize=auto;html=1;endArrow=none;startFill=0;" edge="1" parent="1" source="QoR13ae_kRnfU3jxiXyF-6" target="ka-YYYt9VudWHHIUjrFj-41">
          <mxGeometry relative="1" as="geometry" />
        </mxCell>
        <mxCell id="QoR13ae_kRnfU3jxiXyF-6" value="Usuário Licitação" style="rounded=0;whiteSpace=wrap;html=1;" parent="1" vertex="1">
          <mxGeometry x="20" y="750" width="120" height="60" as="geometry" />
        </mxCell>
        <mxCell id="ka-YYYt9VudWHHIUjrFj-27" value="" style="edgeStyle=orthogonalEdgeStyle;rounded=0;orthogonalLoop=1;jettySize=auto;html=1;endArrow=none;startFill=0;" edge="1" parent="1" source="QoR13ae_kRnfU3jxiXyF-7" target="ka-YYYt9VudWHHIUjrFj-26">
          <mxGeometry relative="1" as="geometry" />
        </mxCell>
        <mxCell id="QoR13ae_kRnfU3jxiXyF-7" value="Demanda" style="rounded=0;whiteSpace=wrap;html=1;" parent="1" vertex="1">
          <mxGeometry x="465" y="120" width="120" height="60" as="geometry" />
        </mxCell>
        <mxCell id="ka-YYYt9VudWHHIUjrFj-38" value="" style="edgeStyle=orthogonalEdgeStyle;rounded=0;orthogonalLoop=1;jettySize=auto;html=1;endArrow=none;startFill=0;" edge="1" parent="1" source="QoR13ae_kRnfU3jxiXyF-9" target="ka-YYYt9VudWHHIUjrFj-37">
          <mxGeometry relative="1" as="geometry" />
        </mxCell>
        <mxCell id="QoR13ae_kRnfU3jxiXyF-9" value="Item em ata" style="rounded=0;whiteSpace=wrap;html=1;" parent="1" vertex="1">
          <mxGeometry x="785" y="885" width="120" height="60" as="geometry" />
        </mxCell>
        <mxCell id="QoR13ae_kRnfU3jxiXyF-11" value="" style="shape=waypoint;sketch=0;size=6;pointerEvents=1;points=[];fillColor=default;resizable=0;rotatable=0;perimeter=centerPerimeter;snapToPoint=1;rounded=0;" parent="1" vertex="1">
          <mxGeometry x="935" y="60" width="20" height="20" as="geometry" />
        </mxCell>
        <mxCell id="QoR13ae_kRnfU3jxiXyF-13" value="" style="endArrow=none;html=1;rounded=0;entryX=0.42;entryY=0.88;entryDx=0;entryDy=0;entryPerimeter=0;" parent="1" source="QoR13ae_kRnfU3jxiXyF-1" target="QoR13ae_kRnfU3jxiXyF-11" edge="1">
          <mxGeometry width="50" height="50" relative="1" as="geometry">
            <mxPoint x="834.9999999999998" y="160" as="sourcePoint" />
            <mxPoint x="881" y="20" as="targetPoint" />
          </mxGeometry>
        </mxCell>
        <mxCell id="QoR13ae_kRnfU3jxiXyF-14" value="NUC" style="text;html=1;align=center;verticalAlign=middle;resizable=0;points=[];autosize=1;strokeColor=none;fillColor=none;" parent="1" vertex="1">
          <mxGeometry x="935" y="55" width="50" height="30" as="geometry" />
        </mxCell>
        <mxCell id="QoR13ae_kRnfU3jxiXyF-15" value="" style="endArrow=oval;html=1;rounded=0;exitX=0.67;exitY=0.022;exitDx=0;exitDy=0;exitPerimeter=0;endFill=0;" parent="1" source="QoR13ae_kRnfU3jxiXyF-1" edge="1">
          <mxGeometry width="50" height="50" relative="1" as="geometry">
            <mxPoint x="971.8399999999999" y="158.01999999999998" as="sourcePoint" />
            <mxPoint x="1001" y="80" as="targetPoint" />
          </mxGeometry>
        </mxCell>
        <mxCell id="QoR13ae_kRnfU3jxiXyF-16" value="descr" style="text;html=1;align=center;verticalAlign=middle;resizable=0;points=[];autosize=1;strokeColor=none;fillColor=none;" parent="1" vertex="1">
          <mxGeometry x="985" y="50" width="50" height="30" as="geometry" />
        </mxCell>
        <mxCell id="QoR13ae_kRnfU3jxiXyF-18" value="" style="endArrow=oval;html=1;rounded=0;exitX=0.25;exitY=0;exitDx=0;exitDy=0;endFill=1;" parent="1" edge="1">
          <mxGeometry width="50" height="50" relative="1" as="geometry">
            <mxPoint x="410" y="1290" as="sourcePoint" />
            <mxPoint x="410" y="1190" as="targetPoint" />
          </mxGeometry>
        </mxCell>
        <mxCell id="QoR13ae_kRnfU3jxiXyF-19" value="CNPJ" style="text;html=1;align=center;verticalAlign=middle;resizable=0;points=[];autosize=1;strokeColor=none;fillColor=none;" parent="1" vertex="1">
          <mxGeometry x="390" y="1165" width="50" height="30" as="geometry" />
        </mxCell>
        <mxCell id="QoR13ae_kRnfU3jxiXyF-20" value="" style="endArrow=oval;html=1;rounded=0;exitX=0.25;exitY=0;exitDx=0;exitDy=0;endFill=0;" parent="1" source="QoR13ae_kRnfU3jxiXyF-3" edge="1">
          <mxGeometry width="50" height="50" relative="1" as="geometry">
            <mxPoint x="435" y="1195" as="sourcePoint" />
            <mxPoint x="430" y="1210" as="targetPoint" />
          </mxGeometry>
        </mxCell>
        <mxCell id="QoR13ae_kRnfU3jxiXyF-21" value="nome" style="text;html=1;align=center;verticalAlign=middle;resizable=0;points=[];autosize=1;strokeColor=none;fillColor=none;" parent="1" vertex="1">
          <mxGeometry x="410" y="1180" width="50" height="30" as="geometry" />
        </mxCell>
        <mxCell id="QoR13ae_kRnfU3jxiXyF-48" value="" style="edgeStyle=orthogonalEdgeStyle;rounded=0;orthogonalLoop=1;jettySize=auto;html=1;endArrow=none;startFill=0;" parent="1" source="QoR13ae_kRnfU3jxiXyF-22" target="QoR13ae_kRnfU3jxiXyF-47" edge="1">
          <mxGeometry relative="1" as="geometry" />
        </mxCell>
        <mxCell id="QoR13ae_kRnfU3jxiXyF-22" value="Representante" style="rounded=0;whiteSpace=wrap;html=1;" parent="1" vertex="1">
          <mxGeometry x="140" y="1150" width="120" height="60" as="geometry" />
        </mxCell>
        <mxCell id="QoR13ae_kRnfU3jxiXyF-23" value="" style="endArrow=oval;html=1;rounded=0;exitX=0.432;exitY=-0.02;exitDx=0;exitDy=0;endFill=0;exitPerimeter=0;" parent="1" source="QoR13ae_kRnfU3jxiXyF-3" edge="1">
          <mxGeometry width="50" height="50" relative="1" as="geometry">
            <mxPoint x="459.30999999999995" y="1300" as="sourcePoint" />
            <mxPoint x="452" y="1220" as="targetPoint" />
          </mxGeometry>
        </mxCell>
        <mxCell id="QoR13ae_kRnfU3jxiXyF-24" value="tipo" style="text;html=1;align=center;verticalAlign=middle;resizable=0;points=[];autosize=1;strokeColor=none;fillColor=none;" parent="1" vertex="1">
          <mxGeometry x="440" y="1195" width="40" height="30" as="geometry" />
        </mxCell>
        <mxCell id="QoR13ae_kRnfU3jxiXyF-26" value="endr" style="text;html=1;align=center;verticalAlign=middle;resizable=0;points=[];autosize=1;strokeColor=none;fillColor=none;" parent="1" vertex="1">
          <mxGeometry x="410" y="1365" width="50" height="30" as="geometry" />
        </mxCell>
        <mxCell id="QoR13ae_kRnfU3jxiXyF-27" value="" style="strokeWidth=2;html=1;shape=mxgraph.flowchart.start_1;whiteSpace=wrap;" parent="1" vertex="1">
          <mxGeometry x="450" y="1435" width="20" height="90" as="geometry" />
        </mxCell>
        <mxCell id="QoR13ae_kRnfU3jxiXyF-30" value="" style="endArrow=oval;html=1;rounded=0;exitX=0.919;exitY=0.232;exitDx=0;exitDy=0;exitPerimeter=0;endFill=0;" parent="1" source="QoR13ae_kRnfU3jxiXyF-27" edge="1">
          <mxGeometry width="50" height="50" relative="1" as="geometry">
            <mxPoint x="480" y="1453" as="sourcePoint" />
            <mxPoint x="510" y="1425" as="targetPoint" />
          </mxGeometry>
        </mxCell>
        <mxCell id="QoR13ae_kRnfU3jxiXyF-31" value="CEP" style="text;html=1;align=center;verticalAlign=middle;resizable=0;points=[];autosize=1;strokeColor=none;fillColor=none;" parent="1" vertex="1">
          <mxGeometry x="510" y="1405" width="50" height="30" as="geometry" />
        </mxCell>
        <mxCell id="QoR13ae_kRnfU3jxiXyF-33" value="" style="endArrow=oval;html=1;rounded=0;exitX=0.919;exitY=0.232;exitDx=0;exitDy=0;exitPerimeter=0;endFill=0;" parent="1" edge="1">
          <mxGeometry width="50" height="50" relative="1" as="geometry">
            <mxPoint x="470" y="1476" as="sourcePoint" />
            <mxPoint x="512" y="1445" as="targetPoint" />
          </mxGeometry>
        </mxCell>
        <mxCell id="QoR13ae_kRnfU3jxiXyF-34" value="cidade" style="text;html=1;align=center;verticalAlign=middle;resizable=0;points=[];autosize=1;strokeColor=none;fillColor=none;" parent="1" vertex="1">
          <mxGeometry x="505" y="1445" width="60" height="30" as="geometry" />
        </mxCell>
        <mxCell id="QoR13ae_kRnfU3jxiXyF-35" value="" style="endArrow=oval;html=1;rounded=0;exitX=0.919;exitY=0.232;exitDx=0;exitDy=0;exitPerimeter=0;endFill=0;" parent="1" edge="1">
          <mxGeometry width="50" height="50" relative="1" as="geometry">
            <mxPoint x="470" y="1495" as="sourcePoint" />
            <mxPoint x="512" y="1464" as="targetPoint" />
          </mxGeometry>
        </mxCell>
        <mxCell id="QoR13ae_kRnfU3jxiXyF-36" value="" style="endArrow=oval;html=1;rounded=0;exitX=1;exitY=0.778;exitDx=0;exitDy=0;exitPerimeter=0;endFill=0;" parent="1" source="QoR13ae_kRnfU3jxiXyF-27" edge="1">
          <mxGeometry width="50" height="50" relative="1" as="geometry">
            <mxPoint x="472" y="1515" as="sourcePoint" />
            <mxPoint x="514" y="1484" as="targetPoint" />
          </mxGeometry>
        </mxCell>
        <mxCell id="QoR13ae_kRnfU3jxiXyF-37" value="logradouro" style="text;html=1;align=center;verticalAlign=middle;resizable=0;points=[];autosize=1;strokeColor=none;fillColor=none;" parent="1" vertex="1">
          <mxGeometry x="510" y="1465" width="80" height="30" as="geometry" />
        </mxCell>
        <mxCell id="QoR13ae_kRnfU3jxiXyF-38" value="estado" style="text;html=1;align=center;verticalAlign=middle;resizable=0;points=[];autosize=1;strokeColor=none;fillColor=none;" parent="1" vertex="1">
          <mxGeometry x="505" y="1425" width="60" height="30" as="geometry" />
        </mxCell>
        <mxCell id="QoR13ae_kRnfU3jxiXyF-39" value="" style="endArrow=oval;html=1;rounded=0;exitX=0.832;exitY=0.844;exitDx=0;exitDy=0;exitPerimeter=0;endFill=0;" parent="1" source="QoR13ae_kRnfU3jxiXyF-27" edge="1">
          <mxGeometry width="50" height="50" relative="1" as="geometry">
            <mxPoint x="490" y="1526" as="sourcePoint" />
            <mxPoint x="510" y="1505" as="targetPoint" />
          </mxGeometry>
        </mxCell>
        <mxCell id="QoR13ae_kRnfU3jxiXyF-40" value="nro" style="text;html=1;align=center;verticalAlign=middle;resizable=0;points=[];autosize=1;strokeColor=none;fillColor=none;" parent="1" vertex="1">
          <mxGeometry x="505" y="1495" width="40" height="30" as="geometry" />
        </mxCell>
        <mxCell id="QoR13ae_kRnfU3jxiXyF-41" value="" style="endArrow=oval;html=1;rounded=0;endFill=0;" parent="1" edge="1">
          <mxGeometry width="50" height="50" relative="1" as="geometry">
            <mxPoint x="150" y="1150" as="sourcePoint" />
            <mxPoint x="150" y="1090" as="targetPoint" />
          </mxGeometry>
        </mxCell>
        <mxCell id="QoR13ae_kRnfU3jxiXyF-42" value="nro_id" style="text;html=1;align=center;verticalAlign=middle;resizable=0;points=[];autosize=1;strokeColor=none;fillColor=none;" parent="1" vertex="1">
          <mxGeometry x="130" y="1060" width="60" height="30" as="geometry" />
        </mxCell>
        <mxCell id="QoR13ae_kRnfU3jxiXyF-43" value="" style="endArrow=oval;html=1;rounded=0;endFill=1;" parent="1" edge="1">
          <mxGeometry width="50" height="50" relative="1" as="geometry">
            <mxPoint x="190" y="1150" as="sourcePoint" />
            <mxPoint x="190" y="1050" as="targetPoint" />
          </mxGeometry>
        </mxCell>
        <mxCell id="QoR13ae_kRnfU3jxiXyF-44" value="cpf" style="text;html=1;align=center;verticalAlign=middle;resizable=0;points=[];autosize=1;strokeColor=none;fillColor=none;" parent="1" vertex="1">
          <mxGeometry x="170" y="1020" width="40" height="30" as="geometry" />
        </mxCell>
        <mxCell id="QoR13ae_kRnfU3jxiXyF-45" value="" style="endArrow=oval;html=1;rounded=0;endFill=0;" parent="1" edge="1">
          <mxGeometry width="50" height="50" relative="1" as="geometry">
            <mxPoint x="240" y="1150" as="sourcePoint" />
            <mxPoint x="240" y="1090" as="targetPoint" />
          </mxGeometry>
        </mxCell>
        <mxCell id="QoR13ae_kRnfU3jxiXyF-46" value="nome" style="text;html=1;align=center;verticalAlign=middle;resizable=0;points=[];autosize=1;strokeColor=none;fillColor=none;" parent="1" vertex="1">
          <mxGeometry x="220" y="1060" width="50" height="30" as="geometry" />
        </mxCell>
        <mxCell id="QoR13ae_kRnfU3jxiXyF-49" style="edgeStyle=orthogonalEdgeStyle;rounded=0;orthogonalLoop=1;jettySize=auto;html=1;entryX=0;entryY=0.5;entryDx=0;entryDy=0;endArrow=none;startFill=0;" parent="1" source="QoR13ae_kRnfU3jxiXyF-47" target="QoR13ae_kRnfU3jxiXyF-3" edge="1">
          <mxGeometry relative="1" as="geometry" />
        </mxCell>
        <mxCell id="QoR13ae_kRnfU3jxiXyF-47" value="Representa" style="rhombus;whiteSpace=wrap;html=1;rounded=0;" parent="1" vertex="1">
          <mxGeometry x="250" y="1280" width="80" height="80" as="geometry" />
        </mxCell>
        <mxCell id="ka-YYYt9VudWHHIUjrFj-2" style="edgeStyle=orthogonalEdgeStyle;rounded=0;orthogonalLoop=1;jettySize=auto;html=1;entryX=0;entryY=0.5;entryDx=0;entryDy=0;endArrow=none;startFill=0;" edge="1" parent="1" source="ka-YYYt9VudWHHIUjrFj-3" target="ka-YYYt9VudWHHIUjrFj-6">
          <mxGeometry relative="1" as="geometry">
            <mxPoint x="1000" y="420" as="targetPoint" />
          </mxGeometry>
        </mxCell>
        <mxCell id="ka-YYYt9VudWHHIUjrFj-3" value="Aquisição" style="rhombus;whiteSpace=wrap;html=1;rounded=0;" vertex="1" parent="1">
          <mxGeometry x="850" y="380" width="80" height="80" as="geometry" />
        </mxCell>
        <mxCell id="ka-YYYt9VudWHHIUjrFj-5" value="" style="endArrow=none;html=1;rounded=0;" edge="1" parent="1" target="ka-YYYt9VudWHHIUjrFj-3">
          <mxGeometry width="50" height="50" relative="1" as="geometry">
            <mxPoint x="980" y="190" as="sourcePoint" />
            <mxPoint x="800" y="455" as="targetPoint" />
            <Array as="points">
              <mxPoint x="980" y="290" />
              <mxPoint x="920" y="290" />
              <mxPoint x="890" y="290" />
            </Array>
          </mxGeometry>
        </mxCell>
        <mxCell id="ka-YYYt9VudWHHIUjrFj-34" value="" style="edgeStyle=orthogonalEdgeStyle;rounded=0;orthogonalLoop=1;jettySize=auto;html=1;endArrow=none;startFill=0;" edge="1" parent="1" source="ka-YYYt9VudWHHIUjrFj-6" target="ka-YYYt9VudWHHIUjrFj-33">
          <mxGeometry relative="1" as="geometry" />
        </mxCell>
        <mxCell id="ka-YYYt9VudWHHIUjrFj-6" value="Licitação" style="rounded=0;whiteSpace=wrap;html=1;" vertex="1" parent="1">
          <mxGeometry x="1180" y="390" width="120" height="60" as="geometry" />
        </mxCell>
        <mxCell id="ka-YYYt9VudWHHIUjrFj-7" value="" style="endArrow=oval;html=1;rounded=0;endFill=1;" edge="1" parent="1">
          <mxGeometry width="50" height="50" relative="1" as="geometry">
            <mxPoint x="1190" y="390" as="sourcePoint" />
            <mxPoint x="1190" y="285" as="targetPoint" />
          </mxGeometry>
        </mxCell>
        <mxCell id="ka-YYYt9VudWHHIUjrFj-8" value="número" style="text;html=1;align=center;verticalAlign=middle;resizable=0;points=[];autosize=1;strokeColor=none;fillColor=none;" vertex="1" parent="1">
          <mxGeometry x="1160" y="260" width="60" height="30" as="geometry" />
        </mxCell>
        <mxCell id="ka-YYYt9VudWHHIUjrFj-9" value="" style="endArrow=oval;html=1;rounded=0;endFill=1;" edge="1" parent="1">
          <mxGeometry width="50" height="50" relative="1" as="geometry">
            <mxPoint x="1210" y="390" as="sourcePoint" />
            <mxPoint x="1210" y="305" as="targetPoint" />
          </mxGeometry>
        </mxCell>
        <mxCell id="ka-YYYt9VudWHHIUjrFj-10" value="" style="endArrow=oval;html=1;rounded=0;endFill=0;" edge="1" parent="1">
          <mxGeometry width="50" height="50" relative="1" as="geometry">
            <mxPoint x="1229.66" y="390" as="sourcePoint" />
            <mxPoint x="1230" y="325" as="targetPoint" />
          </mxGeometry>
        </mxCell>
        <mxCell id="ka-YYYt9VudWHHIUjrFj-11" value="" style="endArrow=oval;html=1;rounded=0;endFill=0;" edge="1" parent="1">
          <mxGeometry width="50" height="50" relative="1" as="geometry">
            <mxPoint x="210.0000000000001" y="120" as="sourcePoint" />
            <mxPoint x="210.34000000000003" y="75" as="targetPoint" />
          </mxGeometry>
        </mxCell>
        <mxCell id="ka-YYYt9VudWHHIUjrFj-12" value="ano" style="text;html=1;align=center;verticalAlign=middle;resizable=0;points=[];autosize=1;strokeColor=none;fillColor=none;" vertex="1" parent="1">
          <mxGeometry x="1190" y="280" width="40" height="30" as="geometry" />
        </mxCell>
        <mxCell id="ka-YYYt9VudWHHIUjrFj-13" value="descrição" style="text;html=1;align=center;verticalAlign=middle;resizable=0;points=[];autosize=1;strokeColor=none;fillColor=none;" vertex="1" parent="1">
          <mxGeometry x="1205" y="300" width="70" height="30" as="geometry" />
        </mxCell>
        <mxCell id="ka-YYYt9VudWHHIUjrFj-25" style="edgeStyle=orthogonalEdgeStyle;rounded=0;orthogonalLoop=1;jettySize=auto;html=1;endArrow=none;startFill=0;" edge="1" parent="1" source="ka-YYYt9VudWHHIUjrFj-18" target="QoR13ae_kRnfU3jxiXyF-7">
          <mxGeometry relative="1" as="geometry" />
        </mxCell>
        <mxCell id="ka-YYYt9VudWHHIUjrFj-69" style="edgeStyle=orthogonalEdgeStyle;rounded=0;orthogonalLoop=1;jettySize=auto;html=1;endArrow=none;startFill=0;" edge="1" parent="1" source="ka-YYYt9VudWHHIUjrFj-18" target="QoR13ae_kRnfU3jxiXyF-5">
          <mxGeometry relative="1" as="geometry" />
        </mxCell>
        <mxCell id="ka-YYYt9VudWHHIUjrFj-70" style="edgeStyle=orthogonalEdgeStyle;rounded=0;orthogonalLoop=1;jettySize=auto;html=1;endArrow=none;startFill=0;" edge="1" parent="1" source="QoR13ae_kRnfU3jxiXyF-7" target="ka-YYYt9VudWHHIUjrFj-65">
          <mxGeometry relative="1" as="geometry">
            <Array as="points">
              <mxPoint x="525" y="210" />
              <mxPoint x="290" y="210" />
            </Array>
          </mxGeometry>
        </mxCell>
        <mxCell id="ka-YYYt9VudWHHIUjrFj-18" value="Demanda" style="rhombus;whiteSpace=wrap;html=1;rounded=0;" vertex="1" parent="1">
          <mxGeometry x="300" y="110" width="80" height="80" as="geometry" />
        </mxCell>
        <mxCell id="ka-YYYt9VudWHHIUjrFj-30" value="" style="edgeStyle=orthogonalEdgeStyle;rounded=0;orthogonalLoop=1;jettySize=auto;html=1;endArrow=none;startFill=0;" edge="1" parent="1" source="ka-YYYt9VudWHHIUjrFj-19" target="ka-YYYt9VudWHHIUjrFj-29">
          <mxGeometry relative="1" as="geometry" />
        </mxCell>
        <mxCell id="ka-YYYt9VudWHHIUjrFj-62" value="" style="edgeStyle=orthogonalEdgeStyle;rounded=0;orthogonalLoop=1;jettySize=auto;html=1;endArrow=none;startFill=0;" edge="1" parent="1" source="ka-YYYt9VudWHHIUjrFj-19" target="ka-YYYt9VudWHHIUjrFj-61">
          <mxGeometry relative="1" as="geometry" />
        </mxCell>
        <mxCell id="ka-YYYt9VudWHHIUjrFj-19" value="Solicitação" style="rounded=0;whiteSpace=wrap;html=1;" vertex="1" parent="1">
          <mxGeometry x="380" y="515" width="120" height="60" as="geometry" />
        </mxCell>
        <mxCell id="ka-YYYt9VudWHHIUjrFj-22" style="edgeStyle=orthogonalEdgeStyle;rounded=0;orthogonalLoop=1;jettySize=auto;html=1;endArrow=none;startFill=0;" edge="1" parent="1" source="ka-YYYt9VudWHHIUjrFj-21" target="ka-YYYt9VudWHHIUjrFj-19">
          <mxGeometry relative="1" as="geometry" />
        </mxCell>
        <mxCell id="ka-YYYt9VudWHHIUjrFj-23" style="edgeStyle=orthogonalEdgeStyle;rounded=0;orthogonalLoop=1;jettySize=auto;html=1;entryX=0.25;entryY=1;entryDx=0;entryDy=0;endArrow=none;startFill=0;" edge="1" parent="1" source="ka-YYYt9VudWHHIUjrFj-21" target="QoR13ae_kRnfU3jxiXyF-5">
          <mxGeometry relative="1" as="geometry">
            <Array as="points">
              <mxPoint x="60" y="545" />
              <mxPoint x="60" y="285" />
              <mxPoint x="160" y="285" />
            </Array>
          </mxGeometry>
        </mxCell>
        <mxCell id="ka-YYYt9VudWHHIUjrFj-21" value="Solicita" style="rhombus;whiteSpace=wrap;html=1;rounded=0;" vertex="1" parent="1">
          <mxGeometry x="110" y="505" width="80" height="80" as="geometry" />
        </mxCell>
        <mxCell id="ka-YYYt9VudWHHIUjrFj-28" style="edgeStyle=orthogonalEdgeStyle;rounded=0;orthogonalLoop=1;jettySize=auto;html=1;endArrow=none;startFill=0;" edge="1" parent="1" source="ka-YYYt9VudWHHIUjrFj-26" target="QoR13ae_kRnfU3jxiXyF-1">
          <mxGeometry relative="1" as="geometry" />
        </mxCell>
        <mxCell id="ka-YYYt9VudWHHIUjrFj-26" value="Inclui" style="rhombus;whiteSpace=wrap;html=1;rounded=0;" vertex="1" parent="1">
          <mxGeometry x="755" y="100" width="80" height="80" as="geometry" />
        </mxCell>
        <mxCell id="ka-YYYt9VudWHHIUjrFj-31" style="edgeStyle=orthogonalEdgeStyle;rounded=0;orthogonalLoop=1;jettySize=auto;html=1;endArrow=none;startFill=0;" edge="1" parent="1" source="ka-YYYt9VudWHHIUjrFj-29" target="QoR13ae_kRnfU3jxiXyF-9">
          <mxGeometry relative="1" as="geometry" />
        </mxCell>
        <mxCell id="ka-YYYt9VudWHHIUjrFj-29" value="inclusão" style="rhombus;whiteSpace=wrap;html=1;rounded=0;" vertex="1" parent="1">
          <mxGeometry x="660" y="505" width="80" height="80" as="geometry" />
        </mxCell>
        <mxCell id="ka-YYYt9VudWHHIUjrFj-35" style="edgeStyle=orthogonalEdgeStyle;rounded=0;orthogonalLoop=1;jettySize=auto;html=1;endArrow=none;startFill=0;" edge="1" parent="1" source="ka-YYYt9VudWHHIUjrFj-33" target="QoR13ae_kRnfU3jxiXyF-4">
          <mxGeometry relative="1" as="geometry" />
        </mxCell>
        <mxCell id="ka-YYYt9VudWHHIUjrFj-33" value="Gera" style="rhombus;whiteSpace=wrap;html=1;rounded=0;" vertex="1" parent="1">
          <mxGeometry x="1200" y="520" width="80" height="80" as="geometry" />
        </mxCell>
        <mxCell id="ka-YYYt9VudWHHIUjrFj-39" style="edgeStyle=orthogonalEdgeStyle;rounded=0;orthogonalLoop=1;jettySize=auto;html=1;endArrow=none;startFill=0;" edge="1" parent="1" source="ka-YYYt9VudWHHIUjrFj-37" target="QoR13ae_kRnfU3jxiXyF-4">
          <mxGeometry relative="1" as="geometry" />
        </mxCell>
        <mxCell id="ka-YYYt9VudWHHIUjrFj-37" value="Pertence" style="rhombus;whiteSpace=wrap;html=1;rounded=0;" vertex="1" parent="1">
          <mxGeometry x="980" y="705" width="80" height="80" as="geometry" />
        </mxCell>
        <mxCell id="ka-YYYt9VudWHHIUjrFj-45" value="" style="edgeStyle=orthogonalEdgeStyle;rounded=0;orthogonalLoop=1;jettySize=auto;html=1;endArrow=none;endFill=1;startFill=0;" edge="1" parent="1" source="ka-YYYt9VudWHHIUjrFj-40" target="ka-YYYt9VudWHHIUjrFj-44">
          <mxGeometry relative="1" as="geometry" />
        </mxCell>
        <mxCell id="ka-YYYt9VudWHHIUjrFj-53" value="" style="edgeStyle=orthogonalEdgeStyle;rounded=0;orthogonalLoop=1;jettySize=auto;html=1;endArrow=none;endFill=1;startFill=0;" edge="1" parent="1" source="ka-YYYt9VudWHHIUjrFj-40" target="ka-YYYt9VudWHHIUjrFj-52">
          <mxGeometry relative="1" as="geometry" />
        </mxCell>
        <mxCell id="ka-YYYt9VudWHHIUjrFj-72" value="" style="edgeStyle=orthogonalEdgeStyle;rounded=0;orthogonalLoop=1;jettySize=auto;html=1;endArrow=none;startFill=0;" edge="1" parent="1" source="ka-YYYt9VudWHHIUjrFj-40" target="ka-YYYt9VudWHHIUjrFj-71">
          <mxGeometry relative="1" as="geometry" />
        </mxCell>
        <mxCell id="ka-YYYt9VudWHHIUjrFj-40" value="Pedido" style="rounded=0;whiteSpace=wrap;html=1;" vertex="1" parent="1">
          <mxGeometry x="330" y="885" width="120" height="60" as="geometry" />
        </mxCell>
        <mxCell id="ka-YYYt9VudWHHIUjrFj-43" style="edgeStyle=orthogonalEdgeStyle;rounded=0;orthogonalLoop=1;jettySize=auto;html=1;endArrow=none;startFill=0;endFill=1;" edge="1" parent="1" source="ka-YYYt9VudWHHIUjrFj-41" target="ka-YYYt9VudWHHIUjrFj-40">
          <mxGeometry relative="1" as="geometry" />
        </mxCell>
        <mxCell id="ka-YYYt9VudWHHIUjrFj-41" value="Pede" style="rhombus;whiteSpace=wrap;html=1;rounded=0;" vertex="1" parent="1">
          <mxGeometry x="350" y="740" width="80" height="80" as="geometry" />
        </mxCell>
        <mxCell id="ka-YYYt9VudWHHIUjrFj-46" style="edgeStyle=orthogonalEdgeStyle;rounded=0;orthogonalLoop=1;jettySize=auto;html=1;endArrow=none;startFill=0;" edge="1" parent="1" source="ka-YYYt9VudWHHIUjrFj-44" target="QoR13ae_kRnfU3jxiXyF-9">
          <mxGeometry relative="1" as="geometry" />
        </mxCell>
        <mxCell id="ka-YYYt9VudWHHIUjrFj-44" value="Inclui" style="rhombus;whiteSpace=wrap;html=1;rounded=0;" vertex="1" parent="1">
          <mxGeometry x="580" y="875" width="80" height="80" as="geometry" />
        </mxCell>
        <mxCell id="ka-YYYt9VudWHHIUjrFj-47" style="edgeStyle=orthogonalEdgeStyle;rounded=0;orthogonalLoop=1;jettySize=auto;html=1;endArrow=none;startFill=0;entryX=0.083;entryY=0.975;entryDx=0;entryDy=0;entryPerimeter=0;" edge="1" parent="1" source="QoR13ae_kRnfU3jxiXyF-27" target="QoR13ae_kRnfU3jxiXyF-3">
          <mxGeometry relative="1" as="geometry">
            <mxPoint x="410" y="1355" as="targetPoint" />
          </mxGeometry>
        </mxCell>
        <mxCell id="ka-YYYt9VudWHHIUjrFj-50" style="edgeStyle=orthogonalEdgeStyle;rounded=0;orthogonalLoop=1;jettySize=auto;html=1;endArrow=none;startFill=0;" edge="1" parent="1" source="ka-YYYt9VudWHHIUjrFj-48" target="QoR13ae_kRnfU3jxiXyF-9">
          <mxGeometry relative="1" as="geometry" />
        </mxCell>
        <mxCell id="ka-YYYt9VudWHHIUjrFj-48" value="Fornece" style="rhombus;whiteSpace=wrap;html=1;rounded=0;" vertex="1" parent="1">
          <mxGeometry x="690" y="1280" width="80" height="80" as="geometry" />
        </mxCell>
        <mxCell id="ka-YYYt9VudWHHIUjrFj-52" value="" style="shape=waypoint;sketch=0;size=6;pointerEvents=1;points=[];fillColor=default;resizable=0;rotatable=0;perimeter=centerPerimeter;snapToPoint=1;rounded=0;" vertex="1" parent="1">
          <mxGeometry x="280" y="885" width="20" height="20" as="geometry" />
        </mxCell>
        <mxCell id="ka-YYYt9VudWHHIUjrFj-54" value="id" style="text;html=1;align=center;verticalAlign=middle;resizable=0;points=[];autosize=1;strokeColor=none;fillColor=none;" vertex="1" parent="1">
          <mxGeometry x="265" y="880" width="30" height="30" as="geometry" />
        </mxCell>
        <mxCell id="ka-YYYt9VudWHHIUjrFj-55" value="" style="edgeStyle=orthogonalEdgeStyle;rounded=0;orthogonalLoop=1;jettySize=auto;html=1;endArrow=none;endFill=1;startFill=0;" edge="1" parent="1" target="ka-YYYt9VudWHHIUjrFj-56" source="ka-YYYt9VudWHHIUjrFj-19">
          <mxGeometry relative="1" as="geometry">
            <mxPoint x="395" y="605" as="sourcePoint" />
            <Array as="points">
              <mxPoint x="440" y="505" />
            </Array>
          </mxGeometry>
        </mxCell>
        <mxCell id="ka-YYYt9VudWHHIUjrFj-56" value="" style="shape=waypoint;sketch=0;size=6;pointerEvents=1;points=[];fillColor=default;resizable=0;rotatable=0;perimeter=centerPerimeter;snapToPoint=1;rounded=0;" vertex="1" parent="1">
          <mxGeometry x="460" y="495" width="20" height="20" as="geometry" />
        </mxCell>
        <mxCell id="ka-YYYt9VudWHHIUjrFj-57" value="id" style="text;html=1;align=center;verticalAlign=middle;resizable=0;points=[];autosize=1;strokeColor=none;fillColor=none;" vertex="1" parent="1">
          <mxGeometry x="465" y="490" width="30" height="30" as="geometry" />
        </mxCell>
        <mxCell id="ka-YYYt9VudWHHIUjrFj-58" value="" style="edgeStyle=orthogonalEdgeStyle;rounded=0;orthogonalLoop=1;jettySize=auto;html=1;endArrow=none;endFill=1;startFill=0;exitX=0.5;exitY=0;exitDx=0;exitDy=0;" edge="1" parent="1" target="ka-YYYt9VudWHHIUjrFj-59" source="QoR13ae_kRnfU3jxiXyF-7">
          <mxGeometry relative="1" as="geometry">
            <mxPoint x="750" y="25" as="sourcePoint" />
          </mxGeometry>
        </mxCell>
        <mxCell id="ka-YYYt9VudWHHIUjrFj-59" value="" style="shape=waypoint;sketch=0;size=6;pointerEvents=1;points=[];fillColor=default;resizable=0;rotatable=0;perimeter=centerPerimeter;snapToPoint=1;rounded=0;" vertex="1" parent="1">
          <mxGeometry x="632.5" y="85" width="20" height="20" as="geometry" />
        </mxCell>
        <mxCell id="ka-YYYt9VudWHHIUjrFj-60" value="id" style="text;html=1;align=center;verticalAlign=middle;resizable=0;points=[];autosize=1;strokeColor=none;fillColor=none;" vertex="1" parent="1">
          <mxGeometry x="617.5" y="80" width="30" height="30" as="geometry" />
        </mxCell>
        <mxCell id="ka-YYYt9VudWHHIUjrFj-64" value="" style="edgeStyle=orthogonalEdgeStyle;rounded=0;orthogonalLoop=1;jettySize=auto;html=1;endArrow=none;startFill=0;" edge="1" parent="1" source="ka-YYYt9VudWHHIUjrFj-61" target="ka-YYYt9VudWHHIUjrFj-63">
          <mxGeometry relative="1" as="geometry" />
        </mxCell>
        <mxCell id="ka-YYYt9VudWHHIUjrFj-61" value="" style="rhombus;whiteSpace=wrap;html=1;rounded=0;" vertex="1" parent="1">
          <mxGeometry x="400" y="645" width="80" height="80" as="geometry" />
        </mxCell>
        <mxCell id="ka-YYYt9VudWHHIUjrFj-63" value="Ofício Solicitação" style="whiteSpace=wrap;html=1;rounded=0;" vertex="1" parent="1">
          <mxGeometry x="540" y="655" width="120" height="60" as="geometry" />
        </mxCell>
        <mxCell id="ka-YYYt9VudWHHIUjrFj-68" value="" style="edgeStyle=orthogonalEdgeStyle;rounded=0;orthogonalLoop=1;jettySize=auto;html=1;endArrow=none;startFill=0;" edge="1" parent="1" source="ka-YYYt9VudWHHIUjrFj-65" target="ka-YYYt9VudWHHIUjrFj-67">
          <mxGeometry relative="1" as="geometry" />
        </mxCell>
        <mxCell id="ka-YYYt9VudWHHIUjrFj-65" value="" style="rhombus;whiteSpace=wrap;html=1;rounded=0;" vertex="1" parent="1">
          <mxGeometry x="250" y="300" width="80" height="80" as="geometry" />
        </mxCell>
        <mxCell id="ka-YYYt9VudWHHIUjrFj-67" value="Ofício Demanda" style="whiteSpace=wrap;html=1;rounded=0;" vertex="1" parent="1">
          <mxGeometry x="390" y="310" width="120" height="60" as="geometry" />
        </mxCell>
        <mxCell id="ka-YYYt9VudWHHIUjrFj-74" value="" style="edgeStyle=orthogonalEdgeStyle;rounded=0;orthogonalLoop=1;jettySize=auto;html=1;endArrow=none;startFill=0;" edge="1" parent="1" source="ka-YYYt9VudWHHIUjrFj-71" target="ka-YYYt9VudWHHIUjrFj-73">
          <mxGeometry relative="1" as="geometry" />
        </mxCell>
        <mxCell id="ka-YYYt9VudWHHIUjrFj-71" value="" style="rhombus;whiteSpace=wrap;html=1;rounded=0;" vertex="1" parent="1">
          <mxGeometry x="350" y="1015" width="80" height="80" as="geometry" />
        </mxCell>
        <mxCell id="ka-YYYt9VudWHHIUjrFj-73" value="Ofício Realização de Empenho" style="whiteSpace=wrap;html=1;rounded=0;" vertex="1" parent="1">
          <mxGeometry x="490" y="1025" width="120" height="60" as="geometry" />
        </mxCell>
        <mxCell id="ka-YYYt9VudWHHIUjrFj-77" value="" style="edgeStyle=orthogonalEdgeStyle;rounded=0;orthogonalLoop=1;jettySize=auto;html=1;endArrow=none;endFill=1;startFill=0;" edge="1" parent="1" target="ka-YYYt9VudWHHIUjrFj-78" source="QoR13ae_kRnfU3jxiXyF-5">
          <mxGeometry relative="1" as="geometry">
            <mxPoint x="100" y="70" as="sourcePoint" />
          </mxGeometry>
        </mxCell>
        <mxCell id="ka-YYYt9VudWHHIUjrFj-78" value="" style="shape=waypoint;sketch=0;size=6;pointerEvents=1;points=[];fillColor=default;resizable=0;rotatable=0;perimeter=centerPerimeter;snapToPoint=1;rounded=0;" vertex="1" parent="1">
          <mxGeometry x="135" y="80" width="20" height="20" as="geometry" />
        </mxCell>
        <mxCell id="ka-YYYt9VudWHHIUjrFj-79" value="id" style="text;html=1;align=center;verticalAlign=middle;resizable=0;points=[];autosize=1;strokeColor=none;fillColor=none;" vertex="1" parent="1">
          <mxGeometry x="120" y="75" width="30" height="30" as="geometry" />
        </mxCell>
        <mxCell id="ka-YYYt9VudWHHIUjrFj-80" value="" style="edgeStyle=orthogonalEdgeStyle;rounded=0;orthogonalLoop=1;jettySize=auto;html=1;endArrow=none;endFill=1;startFill=0;" edge="1" parent="1" target="ka-YYYt9VudWHHIUjrFj-81" source="QoR13ae_kRnfU3jxiXyF-6">
          <mxGeometry relative="1" as="geometry">
            <mxPoint x="150" y="735" as="sourcePoint" />
          </mxGeometry>
        </mxCell>
        <mxCell id="ka-YYYt9VudWHHIUjrFj-81" value="" style="shape=waypoint;sketch=0;size=6;pointerEvents=1;points=[];fillColor=default;resizable=0;rotatable=0;perimeter=centerPerimeter;snapToPoint=1;rounded=0;" vertex="1" parent="1">
          <mxGeometry x="95" y="695" width="20" height="20" as="geometry" />
        </mxCell>
        <mxCell id="ka-YYYt9VudWHHIUjrFj-82" value="id" style="text;html=1;align=center;verticalAlign=middle;resizable=0;points=[];autosize=1;strokeColor=none;fillColor=none;" vertex="1" parent="1">
          <mxGeometry x="80" y="690" width="30" height="30" as="geometry" />
        </mxCell>
        <mxCell id="ka-YYYt9VudWHHIUjrFj-83" value="" style="endArrow=oval;html=1;rounded=0;endFill=0;" edge="1" parent="1">
          <mxGeometry width="50" height="50" relative="1" as="geometry">
            <mxPoint x="40" y="750" as="sourcePoint" />
            <mxPoint x="40.33999999999992" y="705" as="targetPoint" />
          </mxGeometry>
        </mxCell>
        <mxCell id="ka-YYYt9VudWHHIUjrFj-84" value="nome" style="text;html=1;align=center;verticalAlign=middle;resizable=0;points=[];autosize=1;strokeColor=none;fillColor=none;" vertex="1" parent="1">
          <mxGeometry x="15" y="678" width="50" height="30" as="geometry" />
        </mxCell>
        <mxCell id="ka-YYYt9VudWHHIUjrFj-85" value="nome" style="text;html=1;align=center;verticalAlign=middle;resizable=0;points=[];autosize=1;strokeColor=none;fillColor=none;" vertex="1" parent="1">
          <mxGeometry x="190" y="45" width="50" height="30" as="geometry" />
        </mxCell>
        <mxCell id="ka-YYYt9VudWHHIUjrFj-86" value="" style="endArrow=oval;html=1;rounded=0;endFill=0;exitX=0.813;exitY=0.024;exitDx=0;exitDy=0;exitPerimeter=0;" edge="1" parent="1" source="QoR13ae_kRnfU3jxiXyF-5">
          <mxGeometry width="50" height="50" relative="1" as="geometry">
            <mxPoint x="260" y="125" as="sourcePoint" />
            <mxPoint x="250" y="70" as="targetPoint" />
          </mxGeometry>
        </mxCell>
        <mxCell id="ka-YYYt9VudWHHIUjrFj-87" value="cargo" style="text;html=1;align=center;verticalAlign=middle;resizable=0;points=[];autosize=1;strokeColor=none;fillColor=none;" vertex="1" parent="1">
          <mxGeometry x="230" y="45" width="50" height="30" as="geometry" />
        </mxCell>
        <mxCell id="ka-YYYt9VudWHHIUjrFj-88" value="" style="endArrow=oval;html=1;rounded=0;endFill=0;exitX=0.947;exitY=0.043;exitDx=0;exitDy=0;exitPerimeter=0;" edge="1" parent="1" source="QoR13ae_kRnfU3jxiXyF-5">
          <mxGeometry width="50" height="50" relative="1" as="geometry">
            <mxPoint x="270" y="145" as="sourcePoint" />
            <mxPoint x="290" y="70" as="targetPoint" />
          </mxGeometry>
        </mxCell>
        <mxCell id="ka-YYYt9VudWHHIUjrFj-89" value="unidade" style="text;html=1;align=center;verticalAlign=middle;resizable=0;points=[];autosize=1;strokeColor=none;fillColor=none;" vertex="1" parent="1">
          <mxGeometry x="265" y="45" width="70" height="30" as="geometry" />
        </mxCell>
        <mxCell id="ka-YYYt9VudWHHIUjrFj-90" value="" style="endArrow=oval;html=1;rounded=0;endFill=0;exitX=0.813;exitY=0.024;exitDx=0;exitDy=0;exitPerimeter=0;" edge="1" parent="1">
          <mxGeometry width="50" height="50" relative="1" as="geometry">
            <mxPoint x="109" y="750" as="sourcePoint" />
            <mxPoint x="131" y="699" as="targetPoint" />
          </mxGeometry>
        </mxCell>
        <mxCell id="ka-YYYt9VudWHHIUjrFj-91" value="cargo" style="text;html=1;align=center;verticalAlign=middle;resizable=0;points=[];autosize=1;strokeColor=none;fillColor=none;" vertex="1" parent="1">
          <mxGeometry x="111" y="674" width="50" height="30" as="geometry" />
        </mxCell>
      </root>
    </mxGraphModel>
  </diagram>
</mxfile>
